# End-grain cap disks matching showcase_log.obj.
# Bounds: X [-0.5, 0.5], Y/Z radius 0.12.
v -0.500  0.1200  0.0000
v -0.500  0.1039  0.0600
v -0.500  0.0600  0.1039
v -0.500  0.0000  0.1200
v -0.500 -0.0600  0.1039
v -0.500 -0.1039  0.0600
v -0.500 -0.1200  0.0000
v -0.500 -0.1039 -0.0600
v -0.500 -0.0600 -0.1039
v -0.500  0.0000 -0.1200
v -0.500  0.0600 -0.1039
v -0.500  0.1039 -0.0600
v  0.500  0.1200  0.0000
v  0.500  0.1039  0.0600
v  0.500  0.0600  0.1039
v  0.500  0.0000  0.1200
v  0.500 -0.0600  0.1039
v  0.500 -0.1039  0.0600
v  0.500 -0.1200  0.0000
v  0.500 -0.1039 -0.0600
v  0.500 -0.0600 -0.1039
v  0.500  0.0000 -0.1200
v  0.500  0.0600 -0.1039
v  0.500  0.1039 -0.0600
v -0.500  0.0000  0.0000
v  0.500  0.0000  0.0000

f 25 2 1
f 25 3 2
f 25 4 3
f 25 5 4
f 25 6 5
f 25 7 6
f 25 8 7
f 25 9 8
f 25 10 9
f 25 11 10
f 25 12 11
f 25 1 12
f 26 13 14
f 26 14 15
f 26 15 16
f 26 16 17
f 26 17 18
f 26 18 19
f 26 19 20
f 26 20 21
f 26 21 22
f 26 22 23
f 26 23 24
f 26 24 13
