# Low-poly layered conifer used as a dark scale silhouette in the wildfire
# showcase. Overall local bounds are approximately [-0.32, 0.32] x
# [-0.50, 0.50] x [-0.32, 0.32].

# trunk
v -0.035 -0.500 -0.035
v  0.035 -0.500 -0.035
v  0.035  0.100 -0.035
v -0.035  0.100 -0.035
v -0.035 -0.500  0.035
v  0.035 -0.500  0.035
v  0.035  0.100  0.035
v -0.035  0.100  0.035
f 1 2 3
f 1 3 4
f 5 7 6
f 5 8 7
f 1 5 6
f 1 6 2
f 2 6 7
f 2 7 3
f 3 7 8
f 3 8 4
f 4 8 5
f 4 5 1

# broad lower branch tier
v  0.000  0.220  0.000
v  0.320 -0.180  0.000
v  0.226 -0.180  0.226
v  0.000 -0.180  0.320
v -0.226 -0.180  0.226
v -0.320 -0.180  0.000
v -0.226 -0.180 -0.226
v  0.000 -0.180 -0.320
v  0.226 -0.180 -0.226
f 9 10 11
f 9 11 12
f 9 12 13
f 9 13 14
f 9 14 15
f 9 15 16
f 9 16 17
f 9 17 10

# middle branch tier
v  0.000  0.370  0.000
v  0.250  0.020  0.000
v  0.177  0.020  0.177
v  0.000  0.020  0.250
v -0.177  0.020  0.177
v -0.250  0.020  0.000
v -0.177  0.020 -0.177
v  0.000  0.020 -0.250
v  0.177  0.020 -0.177
f 18 19 20
f 18 20 21
f 18 21 22
f 18 22 23
f 18 23 24
f 18 24 25
f 18 25 26
f 18 26 19

# narrow crown tier
v  0.000  0.500  0.000
v  0.180  0.200  0.000
v  0.127  0.200  0.127
v  0.000  0.200  0.180
v -0.127  0.200  0.127
v -0.180  0.200  0.000
v -0.127  0.200 -0.127
v  0.000  0.200 -0.180
v  0.127  0.200 -0.127
f 27 28 29
f 27 29 30
f 27 30 31
f 27 31 32
f 27 32 33
f 27 33 34
f 27 34 35
f 27 35 28
